HIERARCHY
ROOT Hips
{
	OFFSET 0.00000 0.00000 0.00000
	CHANNELS 6 Xposition Yposition Zposition Zrotation Yrotation Xrotation 
	JOINT LHipJoint
	{
		OFFSET 0 0 0
		CHANNELS 3 Zrotation Yrotation Xrotation
		JOINT LeftUpLeg
		{
			OFFSET 1.57338 -1.94743 0.52196
			CHANNELS 3 Zrotation Yrotation Xrotation
			JOINT LeftLeg
			{
				OFFSET 2.60333 -7.15259 0.00000
				CHANNELS 3 Zrotation Yrotation Xrotation
				JOINT LeftFoot
				{
					OFFSET 2.77855 -7.63400 0.00000
					CHANNELS 3 Zrotation Yrotation Xrotation
					JOINT LeftToeBase
					{
						OFFSET 0.19847 -0.54529 2.28466
						CHANNELS 3 Zrotation Yrotation Xrotation
						End Site
						{
							OFFSET 0.00000 -0.00000 1.17993
						}
					}
				}
			}
		}
	}
	JOINT RHipJoint
	{
		OFFSET 0 0 0
		CHANNELS 3 Zrotation Yrotation Xrotation
		JOINT RightUpLeg
		{
			OFFSET -1.61527 -1.94743 0.52196
			CHANNELS 3 Zrotation Yrotation Xrotation
			JOINT RightLeg
			{
				OFFSET -2.53829 -6.97390 0.00000
				CHANNELS 3 Zrotation Yrotation Xrotation
				JOINT RightFoot
				{
					OFFSET -2.80762 -7.71387 0.00000
					CHANNELS 3 Zrotation Yrotation Xrotation
					JOINT RightToeBase
					{
						OFFSET -0.30536 -0.83898 2.28801
						CHANNELS 3 Zrotation Yrotation Xrotation
						End Site
						{
							OFFSET -0.00000 -0.00000 1.21323
						}
					}
				}
			}
		}
	}
	JOINT LowerBack
	{
		OFFSET 0 0 0
		CHANNELS 3 Zrotation Yrotation Xrotation
		JOINT Spine
		{
			OFFSET -0.04381 1.99497 -0.19778
			CHANNELS 3 Zrotation Yrotation Xrotation
			JOINT Spine1
			{
				OFFSET -0.01959 2.01295 -0.04372
				CHANNELS 3 Zrotation Yrotation Xrotation
				JOINT Neck
				{
					OFFSET 0 0 0
					CHANNELS 3 Zrotation Yrotation Xrotation
					JOINT Neck1
					{
						OFFSET -0.05459 1.76913 0.09708
						CHANNELS 3 Zrotation Yrotation Xrotation
						JOINT Head
						{
							OFFSET 0.09461 1.77368 -0.11172
							CHANNELS 3 Zrotation Yrotation Xrotation
							End Site
							{
								OFFSET 0.03812 1.78157 -0.04834
							}
						}
					}
				}
				JOINT LeftShoulder
				{
					OFFSET 0 0 0
					CHANNELS 3 Zrotation Yrotation Xrotation
					JOINT LeftArm
					{
						OFFSET 3.50922 1.24034 -0.28866
						CHANNELS 3 Zrotation Yrotation Xrotation
						JOINT LeftForeArm
						{
							OFFSET 5.40188 -0.00000 0.00000
							CHANNELS 3 Zrotation Yrotation Xrotation
							JOINT LeftHand
							{
								OFFSET 3.68559 -0.00000 0.00000
								CHANNELS 3 Zrotation Yrotation Xrotation
								JOINT LeftFingerBase
								{
									OFFSET 0 0 0
									CHANNELS 3 Zrotation Yrotation Xrotation
									JOINT LeftHandIndex1
									{
										OFFSET 0.61753 -0.00000 0.00000
										CHANNELS 3 Zrotation Yrotation Xrotation
										End Site
										{
											OFFSET 0.49787 -0.00000 0.00000
										}
									}
								}
								JOINT LThumb
								{
									OFFSET 0 0 0
									CHANNELS 3 Zrotation Yrotation Xrotation
									End Site
									{
										OFFSET 0.50547 -0.00000 0.50547
									}
								}
							}
						}
					}
				}
				JOINT RightShoulder
				{
					OFFSET 0 0 0
					CHANNELS 3 Zrotation Yrotation Xrotation
					JOINT RightArm
					{
						OFFSET -2.95373 1.39649 -0.27346
						CHANNELS 3 Zrotation Yrotation Xrotation
						JOINT RightForeArm
						{
							OFFSET -6.10670 -0.00000 -0.00000
							CHANNELS 3 Zrotation Yrotation Xrotation
							JOINT RightHand
							{
								OFFSET -3.63052 -0.00000 0.00000
								CHANNELS 3 Zrotation Yrotation Xrotation
								JOINT RightFingerBase
								{
									OFFSET 0 0 0
									CHANNELS 3 Zrotation Yrotation Xrotation
									JOINT RightHandIndex1
									{
										OFFSET -0.58385 -0.00000 0.00000
										CHANNELS 3 Zrotation Yrotation Xrotation
										End Site
										{
											OFFSET -0.47071 -0.00000 0.00000
										}
									}
								}
								JOINT RThumb
								{
									OFFSET 0 0 0
									CHANNELS 3 Zrotation Yrotation Xrotation
									End Site
									{
										OFFSET -0.47790 -0.00000 0.47790
									}
								}
							}
						}
					}
				}
			}
		}
	}
}
MOTION
Frames: 5
Frame Time: .0083333
2.7073 18.1464 -1.2658 179.5500 -3.7490 -185.5250 0.0000 0.0000 0.0000 -2.6433 4.5596 -1.2727 3.4529 11.3944 33.6217 0.2248 5.2810 -12.4512 1.5266 -7.8013 -22.1120 0.0000 0.0000 0.0000 14.7425 21.3475 -4.9357 -3.8631 -11.9759 35.6468 -1.1451 -3.3524 -21.6782 -0.0765 1.7840 -4.9092 -7.8046 -1.6195 7.7024 -4.8562 -3.3937 3.4369 -0.3894 -1.9941 -0.6186 -9.4430 -4.2123 -7.4282 -0.8599 -2.1829 26.4928 1.1862 -1.3507 9.7935 0.0000 0.0000 0.0000 -84.7624 -35.7245 64.1844 42.9641 -49.7312 -20.6733 -0.0000 -0.0000 13.8979 26.0992 19.5999 9.3320 -7.1250 0.0000 -0.0000 -2.2882 51.5947 -0.3718 0.0000 0.0000 0.0000 24.2086 45.1351 -45.0011 -34.7060 44.6010 -14.6065 0.0000 -0.0000 -15.8925 -30.7168 -6.3417 3.7549 7.1250 -0.0000 -0.0000 -3.3863 -37.3268 -0.6403
2.7535 18.1615 -1.2660 179.7260 -4.3316 -185.4500 0.0000 0.0000 0.0000 -1.9093 4.4938 -2.6683 3.7554 11.8276 35.1249 0.1443 4.7195 -10.4488 1.5534 -7.8663 -22.3086 0.0000 0.0000 0.0000 15.0484 21.0147 -4.8205 -3.7949 -11.8824 35.3173 -1.1166 -3.7287 -21.6283 -0.0794 1.8181 -5.0033 -7.3940 -1.4973 7.6398 -4.9083 -3.1880 3.4070 -0.6853 -1.8822 -0.6503 -9.0505 -4.0571 -7.8373 -1.4840 -1.6058 27.4282 0.9721 -1.0793 10.1816 -0.0000 -0.0000 0.0000 -84.9957 -35.2768 64.1902 42.4943 -49.4802 -20.3155 -0.0000 -0.0000 13.5581 26.2374 19.0382 9.1335 -7.1250 0.0000 -0.0000 -2.0216 51.0111 -0.2995 -0.0000 -0.0000 0.0000 23.5639 45.7797 -45.5470 -35.9822 45.5009 -15.5098 0.0000 -0.0000 -16.3717 -30.9831 -6.1553 3.6838 7.1250 -0.0000 -0.0000 -3.6139 -37.1281 -0.7011
2.8001 18.1783 -1.2689 179.9090 -4.9388 -185.3920 0.0000 0.0000 0.0000 -1.1611 4.3515 -4.0982 4.0716 12.2550 36.6402 0.0728 4.2752 -8.3722 1.4882 -7.7068 -21.8271 0.0000 0.0000 0.0000 15.3756 20.6532 -4.6767 -3.7274 -11.7885 34.9878 -1.0967 -4.1011 -21.6580 -0.0850 1.8802 -5.1746 -6.9888 -1.4024 7.5120 -4.9708 -3.0128 3.4492 -0.9924 -1.7921 -0.5670 -8.9070 -3.7435 -7.0605 -1.7370 -1.1603 27.0069 0.9187 -0.8431 9.8575 0.0000 0.0000 0.0000 -84.8985 -34.9864 64.1288 42.5007 -49.4836 -20.3204 -0.0000 -0.0000 13.1344 26.0854 18.5743 8.8637 -7.1250 0.0000 -0.0000 -2.0736 50.4817 -0.2802 0.0000 0.0000 0.0000 22.6770 46.5732 -46.2804 -37.1822 46.3090 -16.3717 0.0000 -0.0000 -16.3557 -31.3549 -5.5779 3.3894 7.1250 -0.0000 -0.0000 -3.9268 -36.4798 -0.8243
2.8416 18.1947 -1.2698 180.0260 -5.5510 -185.3560 0.0000 0.0000 0.0000 -0.5203 4.2302 -5.5224 4.3905 12.6626 38.1183 0.0203 3.8751 -6.3273 1.4450 -7.5993 -21.5034 0.0000 0.0000 0.0000 15.6026 20.2468 -4.5219 -3.6593 -11.6927 34.6534 -1.0832 -4.3449 -21.6776 -0.0726 1.7380 -4.7820 -6.5929 -1.3061 7.4888 -5.0317 -2.8503 3.4539 -1.2866 -1.7048 -0.5769 -8.4893 -3.4773 -7.0154 -2.4237 -0.5060 27.3706 0.6871 -0.5292 9.9559 0.0000 0.0000 0.0000 -84.8221 -34.7026 63.7725 42.3153 -49.3834 -20.1796 -0.0000 -0.0000 12.9940 25.7658 18.7666 8.8267 -7.1250 0.0000 -0.0000 -2.4343 50.6349 -0.3382 0.0000 0.0000 0.0000 21.5210 47.5263 -47.0838 -38.4068 47.0971 -17.2630 0.0000 -0.0000 -16.3611 -32.2673 -5.4046 3.4033 7.1250 -0.0000 -0.0000 -4.6957 -36.3298 -1.0038
2.8806 18.2113 -1.2679 180.1910 -6.0495 -185.3540 0.0000 0.0000 0.0000 0.1357 4.1534 -6.8214 4.6927 13.0291 39.4777 -0.0111 3.5402 -4.4877 1.3670 -7.3998 -20.9053 0.0000 0.0000 0.0000 15.9006 19.9674 -4.3396 -3.5926 -11.5977 34.3231 -1.0673 -4.5630 -21.6644 -0.0496 1.4366 -3.9511 -6.1011 -1.1709 7.5149 -5.1007 -2.6350 3.4254 -1.6441 -1.5877 -0.6514 -8.4538 -3.2197 -6.7384 -2.6449 0.0434 27.6112 0.6720 -0.2490 9.9785 -0.0000 -0.0000 0.0000 -84.8070 -34.2904 63.6540 42.4044 -49.4316 -20.2472 -0.0000 -0.0000 12.4508 25.3107 18.8718 8.6970 -7.1250 0.0000 -0.0000 -2.9123 50.6700 -0.4072 -0.0000 -0.0000 0.0000 20.4467 48.4516 -47.7102 -39.7728 47.9347 -18.2704 0.0000 -0.0000 -16.2449 -32.6379 -5.4594 3.4869 7.1250 -0.0000 -0.0000 -5.0102 -36.4157 -1.0609
